<svg xmlns="http://www.w3.org/2000/svg" version="1.1" xmlns:xlink="http://www.w3.org/1999/xlink" xmlns:svgjs="http://svgjs.dev/svgjs" viewBox="0 0 1422 800"><g stroke-width="4.5" stroke="hsl(0, 0%, 0%)" fill="none" stroke-linecap="butt"><line x1="96" y1="0" x2="0" y2="96" opacity="0.05"></line><line x1="96" y1="0" x2="192" y2="96" opacity="0.05"></line><line x1="192" y1="0" x2="288" y2="96" opacity="0.05"></line><line x1="384" y1="0" x2="288" y2="96" opacity="0.05"></line><line x1="480" y1="0" x2="384" y2="96" opacity="0.05"></line><line x1="576" y1="0" x2="480" y2="96" opacity="0.05"></line><line x1="672" y1="0" x2="576" y2="96" opacity="0.05"></line><line x1="768" y1="0" x2="672" y2="96" opacity="0.05"></line><line x1="768" y1="0" x2="864" y2="96" opacity="0.05"></line><line x1="960" y1="0" x2="864" y2="96" opacity="0.05"></line><line x1="1056" y1="0" x2="960" y2="96" opacity="0.05"></line><line x1="1056" y1="0" x2="1152" y2="96" opacity="0.05"></line><line x1="1152" y1="0" x2="1248" y2="96" opacity="0.05"></line><line x1="1344" y1="0" x2="1248" y2="96" opacity="0.05"></line><line x1="1440" y1="0" x2="1344" y2="96" opacity="0.05"></line><line x1="96" y1="96" x2="0" y2="192" opacity="0.16"></line><line x1="96" y1="96" x2="192" y2="192" opacity="0.16"></line><line x1="192" y1="96" x2="288" y2="192" opacity="0.16"></line><line x1="288" y1="96" x2="384" y2="192" opacity="0.16"></line><line x1="384" y1="96" x2="480" y2="192" opacity="0.16"></line><line x1="576" y1="96" x2="480" y2="192" opacity="0.16"></line><line x1="576" y1="96" x2="672" y2="192" opacity="0.16"></line><line x1="768" y1="96" x2="672" y2="192" opacity="0.16"></line><line x1="864" y1="96" x2="768" y2="192" opacity="0.16"></line><line x1="960" y1="96" x2="864" y2="192" opacity="0.16"></line><line x1="1056" y1="96" x2="960" y2="192" opacity="0.16"></line><line x1="1056" y1="96" x2="1152" y2="192" opacity="0.16"></line><line x1="1248" y1="96" x2="1152" y2="192" opacity="0.16"></line><line x1="1344" y1="96" x2="1248" y2="192" opacity="0.16"></line><line x1="1440" y1="96" x2="1344" y2="192" opacity="0.16"></line><line x1="96" y1="192" x2="0" y2="288" opacity="0.28"></line><line x1="192" y1="192" x2="96" y2="288" opacity="0.28"></line><line x1="192" y1="192" x2="288" y2="288" opacity="0.28"></line><line x1="384" y1="192" x2="288" y2="288" opacity="0.28"></line><line x1="480" y1="192" x2="384" y2="288" opacity="0.28"></line><line x1="576" y1="192" x2="480" y2="288" opacity="0.28"></line><line x1="672" y1="192" x2="576" y2="288" opacity="0.28"></line><line x1="768" y1="192" x2="672" y2="288" opacity="0.28"></line><line x1="864" y1="192" x2="768" y2="288" opacity="0.28"></line><line x1="960" y1="192" x2="864" y2="288" opacity="0.28"></line><line x1="960" y1="192" x2="1056" y2="288" opacity="0.28"></line><line x1="1056" y1="192" x2="1152" y2="288" opacity="0.28"></line><line x1="1248" y1="192" x2="1152" y2="288" opacity="0.28"></line><line x1="1344" y1="192" x2="1248" y2="288" opacity="0.28"></line><line x1="1440" y1="192" x2="1344" y2="288" opacity="0.28"></line><line x1="0" y1="288" x2="96" y2="384" opacity="0.39"></line><line x1="96" y1="288" x2="192" y2="384" opacity="0.39"></line><line x1="192" y1="288" x2="288" y2="384" opacity="0.39"></line><line x1="384" y1="288" x2="288" y2="384" opacity="0.39"></line><line x1="480" y1="288" x2="384" y2="384" opacity="0.39"></line><line x1="480" y1="288" x2="576" y2="384" opacity="0.39"></line><line x1="672" y1="288" x2="576" y2="384" opacity="0.39"></line><line x1="672" y1="288" x2="768" y2="384" opacity="0.39"></line><line x1="864" y1="288" x2="768" y2="384" opacity="0.39"></line><line x1="864" y1="288" x2="960" y2="384" opacity="0.39"></line><line x1="1056" y1="288" x2="960" y2="384" opacity="0.39"></line><line x1="1056" y1="288" x2="1152" y2="384" opacity="0.39"></line><line x1="1152" y1="288" x2="1248" y2="384" opacity="0.39"></line><line x1="1344" y1="288" x2="1248" y2="384" opacity="0.39"></line><line x1="1344" y1="288" x2="1440" y2="384" opacity="0.39"></line><line x1="0" y1="384" x2="96" y2="480" opacity="0.51"></line><line x1="96" y1="384" x2="192" y2="480" opacity="0.51"></line><line x1="192" y1="384" x2="288" y2="480" opacity="0.51"></line><line x1="384" y1="384" x2="288" y2="480" opacity="0.51"></line><line x1="480" y1="384" x2="384" y2="480" opacity="0.51"></line><line x1="480" y1="384" x2="576" y2="480" opacity="0.51"></line><line x1="672" y1="384" x2="576" y2="480" opacity="0.51"></line><line x1="672" y1="384" x2="768" y2="480" opacity="0.51"></line><line x1="864" y1="384" x2="768" y2="480" opacity="0.51"></line><line x1="864" y1="384" x2="960" y2="480" opacity="0.51"></line><line x1="960" y1="384" x2="1056" y2="480" opacity="0.51"></line><line x1="1056" y1="384" x2="1152" y2="480" opacity="0.51"></line><line x1="1248" y1="384" x2="1152" y2="480" opacity="0.51"></line><line x1="1344" y1="384" x2="1248" y2="480" opacity="0.51"></line><line x1="1344" y1="384" x2="1440" y2="480" opacity="0.51"></line><line x1="0" y1="480" x2="96" y2="576" opacity="0.62"></line><line x1="192" y1="480" x2="96" y2="576" opacity="0.62"></line><line x1="288" y1="480" x2="192" y2="576" opacity="0.62"></line><line x1="384" y1="480" x2="288" y2="576" opacity="0.62"></line><line x1="480" y1="480" x2="384" y2="576" opacity="0.62"></line><line x1="576" y1="480" x2="480" y2="576" opacity="0.62"></line><line x1="672" y1="480" x2="576" y2="576" opacity="0.62"></line><line x1="672" y1="480" x2="768" y2="576" opacity="0.62"></line><line x1="864" y1="480" x2="768" y2="576" opacity="0.62"></line><line x1="960" y1="480" x2="864" y2="576" opacity="0.62"></line><line x1="1056" y1="480" x2="960" y2="576" opacity="0.62"></line><line x1="1152" y1="480" x2="1056" y2="576" opacity="0.62"></line><line x1="1152" y1="480" x2="1248" y2="576" opacity="0.62"></line><line x1="1248" y1="480" x2="1344" y2="576" opacity="0.62"></line><line x1="1440" y1="480" x2="1344" y2="576" opacity="0.62"></line><line x1="96" y1="576" x2="0" y2="672" opacity="0.73"></line><line x1="96" y1="576" x2="192" y2="672" opacity="0.73"></line><line x1="192" y1="576" x2="288" y2="672" opacity="0.73"></line><line x1="384" y1="576" x2="288" y2="672" opacity="0.73"></line><line x1="384" y1="576" x2="480" y2="672" opacity="0.73"></line><line x1="576" y1="576" x2="480" y2="672" opacity="0.73"></line><line x1="672" y1="576" x2="576" y2="672" opacity="0.73"></line><line x1="768" y1="576" x2="672" y2="672" opacity="0.73"></line><line x1="864" y1="576" x2="768" y2="672" opacity="0.73"></line><line x1="864" y1="576" x2="960" y2="672" opacity="0.73"></line><line x1="960" y1="576" x2="1056" y2="672" opacity="0.73"></line><line x1="1056" y1="576" x2="1152" y2="672" opacity="0.73"></line><line x1="1248" y1="576" x2="1152" y2="672" opacity="0.73"></line><line x1="1344" y1="576" x2="1248" y2="672" opacity="0.73"></line><line x1="1440" y1="576" x2="1344" y2="672" opacity="0.73"></line><line x1="96" y1="672" x2="0" y2="768" opacity="0.85"></line><line x1="96" y1="672" x2="192" y2="768" opacity="0.85"></line><line x1="288" y1="672" x2="192" y2="768" opacity="0.85"></line><line x1="288" y1="672" x2="384" y2="768" opacity="0.85"></line><line x1="480" y1="672" x2="384" y2="768" opacity="0.85"></line><line x1="576" y1="672" x2="480" y2="768" opacity="0.85"></line><line x1="672" y1="672" x2="576" y2="768" opacity="0.85"></line><line x1="672" y1="672" x2="768" y2="768" opacity="0.85"></line><line x1="768" y1="672" x2="864" y2="768" opacity="0.85"></line><line x1="960" y1="672" x2="864" y2="768" opacity="0.85"></line><line x1="960" y1="672" x2="1056" y2="768" opacity="0.85"></line><line x1="1152" y1="672" x2="1056" y2="768" opacity="0.85"></line><line x1="1248" y1="672" x2="1152" y2="768" opacity="0.85"></line><line x1="1344" y1="672" x2="1248" y2="768" opacity="0.85"></line><line x1="1344" y1="672" x2="1440" y2="768" opacity="0.85"></line><line x1="96" y1="768" x2="0" y2="864" opacity="0.96"></line><line x1="96" y1="768" x2="192" y2="864" opacity="0.96"></line><line x1="288" y1="768" x2="192" y2="864" opacity="0.96"></line><line x1="288" y1="768" x2="384" y2="864" opacity="0.96"></line><line x1="480" y1="768" x2="384" y2="864" opacity="0.96"></line><line x1="576" y1="768" x2="480" y2="864" opacity="0.96"></line><line x1="672" y1="768" x2="576" y2="864" opacity="0.96"></line><line x1="768" y1="768" x2="672" y2="864" opacity="0.96"></line><line x1="768" y1="768" x2="864" y2="864" opacity="0.96"></line><line x1="864" y1="768" x2="960" y2="864" opacity="0.96"></line><line x1="1056" y1="768" x2="960" y2="864" opacity="0.96"></line><line x1="1056" y1="768" x2="1152" y2="864" opacity="0.96"></line><line x1="1248" y1="768" x2="1152" y2="864" opacity="0.96"></line><line x1="1248" y1="768" x2="1344" y2="864" opacity="0.96"></line><line x1="1440" y1="768" x2="1344" y2="864" opacity="0.96"></line></g></svg>