<svg xmlns="http://www.w3.org/2000/svg" version="1.1" xmlns:xlink="http://www.w3.org/1999/xlink" xmlns:svgjs="http://svgjs.dev/svgjs" viewBox="0 0 800 800" opacity="1"><defs><linearGradient x1="50%" y1="0%" x2="50%" y2="100%" id="uundulate-grad"><stop stop-color="hsl(0, 0%, 0%)" stop-opacity="1" offset="45%"></stop><stop stop-color="hsl(0, 0%, 0%)" stop-opacity="1" offset="100%"></stop></linearGradient></defs><g stroke-width="3" stroke="hsl(32, 100%, 51%)" fill="none"><path d="M1153.4816200799175 -45.848571585860554C1244.433535622549 179.6898218142643 1157.477222904133 771.6653706550624 838.5212295364026 950.2384546743067C519.5652361686723 1128.8115386935513 -286.5552325425567 1036.8406251066376 -377.50714808518825 811.3022317065127C-468.4590636278198 585.7638383063879 82.99604156404041 46.22725037295277 401.95203493177087 -132.34583364629162C720.9080282995012 -310.9189176655361 1062.5297045372859 -271.3869649859855 1153.4816200799175 -45.848571585860554C1244.433535622549 179.6898218142643 1157.477222904133 771.6653706550624 838.5212295364026 950.2384546743067 "></path><path d="M1123.342346731799 -28.014643370863723C1210.656185652725 188.5022142932562 1127.1781254430457 756.7987411804224 820.9803718100247 928.2289018388972C514.7826181770033 1099.6590624973717 -259.0930317857763 1011.3669854539346 -346.4068707067026 794.8501277898149C-433.7207096276289 578.333270125695 95.67619135655696 60.37814570959722 401.8739449895779 -111.05201494887746C708.0716986225991 -282.4821756073522 1036.0285078108727 -244.5315010349836 1123.342346731799 -28.014643370863723C1210.656185652725 188.5022142932562 1127.1781254430457 756.7987411804224 820.9803718100247 928.2289018388972 "></path><path d="M1093.2030733836802 -10.180593085554165C1176.8788356829014 197.31472884256073 1096.8790279819584 741.932233776095 803.4395140836466 906.2194710737997C510.0000001853348 1070.5067083715046 -231.63083102899589 985.8934678715441 -315.30659332821693 778.3981459434294C-398.982355627438 570.9028240153143 108.35634114907339 74.52916311655417 401.79585504738543 -89.75807418115079C695.2353689456972 -254.04531147885575 1009.5273110844594 -217.67591501366917 1093.2030733836802 -10.180593085554165C1176.8788356829014 197.31472884256073 1096.8790279819584 741.932233776095 803.4395140836466 906.2194710737997 "></path><path d="M1063.06383055314 7.653304611864542C1143.1015162306558 206.1270908039745 1066.5799610384495 727.0655737838767 785.8986868748468 884.2098877208118C505.21741271124415 1041.3542016577471 -204.1685997546374 960.419797701263 -284.20628543215315 761.9460115091531C-364.2439711096689 563.4722253170432 121.03652145916806 88.68002793562039 401.7177956227706 -68.46428600131475C682.3990697863733 -225.60859993824994 983.0261448756241 -190.82048158024537 1063.06383055314 7.653304611864542C1143.1015162306558 206.1270908039745 1066.5799610384495 727.0655737838767 785.8986868748468 884.2098877208118 "></path><path d="M1032.9245572050213 25.487232826861487C1109.3241662608318 214.93948328296642 1036.2808635773622 712.1989443092366 768.3578291484689 862.2003348854021C500.4347947195754 1012.2017254615675 -176.70639899785698 934.9461580485599 -253.1060080536675 745.4939075924551C-329.505617109478 556.0416571363503 133.7166712516846 102.83092327226473 401.6397056805781 -47.17046730390058C669.5627401094714 -197.171857880066 956.5249481492108 -163.96501762924345 1032.9245572050213 25.487232826861487C1109.3241662608318 214.93948328296642 1036.2808635773622 712.1989443092366 768.3578291484689 862.2003348854021 "></path><path d="M1002.7852838569027 43.32116104185843C1075.546816291008 223.75187576195844 1005.9817661162751 697.3323148345967 750.8169714220908 840.1907820499923C495.65217672790664 983.049249265388 -149.24419824107662 909.4725183958569 -222.00573067518184 729.0418036757571C-294.7672631092871 548.6110889556571 146.39682104420103 116.98181860890918 401.5616157383853 -25.876648606486413C656.7264104325695 -168.735115821882 930.0237514227974 -137.10955367824153 1002.7852838569027 43.32116104185843C1075.546816291008 223.75187576195844 1005.9817661162751 697.3323148345967 750.8169714220908 840.1907820499923 "></path><path d="M972.6460715439405 61.15508925685526C1041.7695273563404 232.56426824095024 975.6827296903441 682.4656853599568 733.2761747308691 818.1812292145828C490.8696197713941 953.8967730692084 -121.78193644913995 883.9988787431541 -190.90539226153993 712.5896997590592C-260.0288480739399 541.1805207749642 159.07703187187394 131.13271394555352 401.4835868313488 -4.582829909072245C643.8901417908239 -140.29837376369807 903.5226157315403 -110.2540897272396 972.6460715439405 61.15508925685526C1041.7695273563404 232.56426824095024 975.6827296903441 682.4656853599568 733.2761747308691 818.1812292145828 "></path><path d="M942.5067981958218 78.98901747185232C1007.9921773865165 241.37666071994227 945.383632229257 667.5990558853168 715.7353170044912 796.1716763791728C486.08700177972537 924.7442968730288 -94.31973569235959 858.5252390904511 -159.80511488305427 696.1375958423612C-225.29049407374902 533.7499525942712 171.75718166439037 145.28360928219797 401.4054968891562 16.710988788341922C631.053812113922 -111.86163170551413 877.021419005127 -83.39862577623768 942.5067981958218 78.98901747185232C1007.9921773865165 241.37666071994227 945.383632229257 667.5990558853168 715.7353170044912 796.1716763791728 "></path><path d="M912.3675248477032 96.8230067220054C974.2148274166927 250.18911423409043 915.0845347681698 652.7324874458332 698.1944592781133 774.1621845789193C481.3043837880565 895.5918817120055 -66.85753493557917 833.0516604729044 -128.70483750456862 679.6855529608192C-190.55214007355806 526.3194454487344 184.4373314569068 159.43456565399856 401.3274069469634 38.00486852091228C618.21748243702 -83.42482861217394 850.5202222787138 -56.54310079007951 912.3675248477032 96.8230067220054C974.2148274166927 250.18911423409043 915.0845347681698 652.7324874458332 698.1944592781133 774.1621845789193 "></path><path d="M882.2282514995848 114.65696545458047C940.4374774468688 259.00153723066046 884.7854373070827 637.8658884887712 680.6536015517352 752.1526622610877C476.52176579638774 866.439436033404 -39.395334178798805 807.5780513377795 -97.60456012608296 663.2334795616994C-155.81378607336717 518.8889077856195 197.11748124942335 173.58549150822114 401.2493170047708 59.29871773590463C605.3811527601183 -54.98805603641188 824.0190255523005 -29.68760632149946 882.2282514995848 114.65696545458047C940.4374774468688 259.00153723066046 884.7854373070827 637.8658884887712 680.6536015517352 752.1526622610877 "></path><path d="M852.0889781514661 132.49089366957742C906.6601274770451 267.81392970965237 854.4863398459952 622.9992590141312 663.1127438253573 730.143109425678C471.7391478047191 837.2869598372245 -11.933133422018386 782.1044116850765 -66.5042827475973 646.7813756450015C-121.07543207317627 511.45833960492655 209.7976310419399 187.73638684486548 401.17122706257805 80.59253643331874C592.5448230832162 -26.551313978227938 797.5178288258871 -2.832142370497536 852.0889781514661 132.49089366957742C906.6601274770451 267.81392970965237 854.4863398459952 622.9992590141312 663.1127438253573 730.143109425678 "></path><path d="M821.9497658385039 150.32482188457436C872.8828385423776 276.6263221886443 824.1873034200644 608.1326295394912 645.5719471341354 708.1335565902682C466.9565908482065 808.1344836410451 15.529128369918226 756.6307720323734 -35.403944333955394 630.3292717283034C-86.33701703782907 504.0277714242336 222.47784186961258 201.88728218150982 401.0931981555416 101.88635513073297C579.7085544414706 1.8854280799560001 771.0166931346303 24.023321580504387 821.9497658385039 150.32482188457436C872.8828385423776 276.6263221886443 824.1873034200644 608.1326295394912 645.5719471341354 708.1335565902682 "></path><path d="M791.8104619728069 168.15875009957125C839.1054580549755 285.4387146676362 793.8881754413992 593.2660000648513 628.0310588901793 686.1240037548584C462.1739423389597 778.9820074448655 42.99129860912052 731.1571323796704 -4.303697473047919 613.8771678116055C-51.5986935552163 496.59720324354043 235.157961144551 216.03817751815427 401.01507769577074 123.18017382814713C566.8721942469906 30.32217013813994 744.5154658906386 50.87878553150631 791.8104619728069 168.15875009957125C839.1054580549755 285.4387146676362 793.8881754413992 593.2660000648513 628.0310588901793 686.1240037548584 "></path><path d="M761.6711886246885 185.99270883214626C805.3281080851516 294.2511376642062 763.5890779803119 578.3994011077893 610.4902011638014 664.1144814370267C457.3913243472907 749.8295617662639 70.45349936590094 705.6835232445454 26.79657990543774 597.4250944124856C-16.860339555025405 489.1666655804256 247.83811093706754 230.18910337237674 400.936987753578 144.47402304313937C554.0358645700886 58.758942713902 718.0142691642254 77.73428000008636 761.6711886246885 185.99270883214626C805.3281080851516 294.2511376642062 763.5890779803119 578.3994011077893 610.4902011638014 664.1144814370267 "></path><path d="M731.5319763117262 203.8266370471432C771.5508191504841 303.06353014319825 733.290041554381 563.5327716331493 592.9494044725797 642.1049286016168C452.6087673907783 720.6770855700845 97.91576115783755 680.2098835918424 57.896918319079646 580.9729904957875C17.878075480321797 481.73609739973256 260.5183217647402 244.33999870902113 400.85895884654155 165.76784174055354C541.1995959283429 87.195684772086 691.5131334729683 104.58974395108828 731.5319763117262 203.8266370471432C771.5508191504841 303.06353014319825 733.290041554381 563.5327716331493 592.9494044725797 642.1049286016168 "></path><path d="M701.3926419284513 221.66056526214015C737.773408145504 311.87592262219016 702.9908830581376 548.6661421585093 575.4084857110454 620.0953757662071C447.8260883639533 691.5246093739049 125.37790087946172 654.7362439391394 88.99713466240905 564.5208865790895C52.61636844535644 474.3055292190395 273.1984105221005 258.4908940456655 400.7808078691926 187.0616604379677C528.3632052162848 115.63242683026994 665.0118757113987 131.4452079020902 701.3926419284513 221.66056526214015C737.773408145504 311.87592262219016 702.9908830581376 548.6661421585093 575.4084857110454 620.0953757662071 "></path><path d="M671.2533685803328 239.49453925350429C703.9960581756801 320.68836087754926 672.6917855970504 533.7995584602365 557.8676279846675 598.0858687071645C443.04347037228456 662.3721789540925 152.84010163624208 629.2626500628037 120.09741204089471 548.0688284387587C87.3547224455474 466.87500681471374 285.87856031461706 272.6418351586771 400.702717927 208.35552491174906C515.5268755393829 144.06921466482106 638.5106789849854 158.3007176294593 671.2533685803328 239.49453925350429C703.9960581756801 320.68836087754926 672.6917855970504 533.7995584602365 557.8676279846675 598.0858687071645 "></path><path d="M641.1141104910033 257.3284674685012C670.2187234646453 329.50075335654117 642.3927033947523 518.9329289855966 540.3267855170785 576.0763158717548C438.26086763940475 633.219702757913 180.30231765181156 603.7890104101007 151.19770467816943 531.6167245220606C122.09309170452735 459.4444386340207 298.5587253659226 286.7927304953215 400.6246432435963 229.64934360916322C502.6905611212701 172.505956723005 612.0094975173612 185.15618158046118 641.1141104910033 257.3284674685012C670.2187234646453 329.50075335654117 642.3927033947523 518.9329289855966 540.3267855170785 576.0763158717548 "></path><path d="M610.9748676604629 275.1623956834981C636.4414040123997 338.3131458355331 612.0936364512431 504.06629951095647 522.7859583082786 554.066763036345C433.4782801653141 604.0672265617335 207.76454892617005 578.3153707573977 182.2980125742332 515.1646206053626C156.83147622229637 452.01387045332774 311.2389056760172 300.94362583196585 400.54658381898173 250.9431623065774C489.85426196194624 200.94269878118894 585.5083313085261 212.0116455314631 610.9748676604629 275.1623956834981C636.4414040123997 338.3131458355331 612.0936364512431 504.06629951095647 522.7859583082786 554.066763036345 "></path><path d="M580.8355943123443 292.99635441607313C602.6640540425758 347.1255688321031 581.794538990156 489.1997005538947 505.2451005819007 532.0572407185134C428.69566217364536 574.9147808831319 235.22674968295047 552.8417616222728 213.39828995271887 498.7125472062428C191.56983022248733 444.5833327902128 323.91905546853377 315.09455168618837 400.468493876789 272.2370115215697C477.01793228504425 229.379471356951 559.0071345821127 238.86714000004315 580.8355943123443 292.99635441607313C602.6640540425758 347.1255688321031 581.794538990156 489.1997005538947 505.2451005819007 532.0572407185134 "></path><path d="M550.6963209642256 310.8302826310701C568.8867040727521 355.9379613110951 551.4954415290688 474.33307107925464 487.7042428555227 510.04768788310355C423.9130441819766 545.7623046869525 262.68895043973083 527.3681219695698 244.49856733120453 482.2604432895448C226.30818422267822 437.15276460951975 336.59920526105026 329.24544702283276 400.3904039345963 293.53083021898385C464.1816026081424 257.81621341513494 532.5059378556994 265.7226039510451 550.6963209642256 310.8302826310701C568.8867040727521 355.9379613110951 551.4954415290688 474.33307107925464 487.7042428555227 510.04768788310355 "></path><path d="M520.5570933924744 328.66424136364515C535.1093998792953 364.7503843076651 521.1963898443488 459.46647212219284 470.16343090551186 488.0381655652719C419.13047196667503 516.609859008351 290.15119697287844 501.89451283444487 275.59889048605737 465.80836989042484C261.0465839992363 429.7222269464049 349.27940082993393 343.3963728770553 400.3123597687708 314.82467943397614C451.3453187076077 286.25298599089706 506.0047869056532 292.5780984196251 520.5570933924744 328.66424136364515C535.1093998792953 364.7503843076651 521.1963898443488 459.46647212219284 470.16343090551186 488.0381655652719 "></path><path d="M490.4177895267776 346.4981848374311C501.33201939189337 373.5627920454461 490.8972618656835 444.59985790634187 452.6225426615558 466.02862798865124C414.34782345742815 487.4573980709605 317.6133672120807 476.4208884405309 306.6991373469649 449.3562812325159C295.78490748184913 422.29167402450094 361.95952010487235 357.54728347248874 400.234239309 336.1185133901794C438.5089585131276 314.68974330787006 479.5035596616618 319.4335776294161 490.4177895267776 346.4981848374311C501.33201939189337 373.5627920454461 490.8972618656835 444.59985790634187 452.6225426615558 466.02862798865124 "></path><path d="M460.2785466962372 364.3321283112171C467.55469993964766 382.37519978322706 460.5981949221744 429.73324369049095 435.08171545275593 444.0190904120305C409.5652359833375 458.30493713357004 345.0755984864392 450.94726404661697 337.7994452430287 432.90419257460695C330.52329199961815 414.86112110259694 374.63970041496697 371.69819406792215 400.15617988438544 357.4123473463826C425.67265935380385 343.12650062484306 453.0023934528266 346.2890568392071 460.2785466962372 364.3321283112171C467.55469993964766 382.37519978322706 460.5981949221744 429.73324369049095 435.08171545275593 444.0190904120305 "></path><path d="M430.1392733481186 382.16607178500306C433.77734996982383 391.1876075210081 430.2990974610872 414.86662947464 417.54085772637796 422.00955283540975C404.78261799166876 429.1524761961796 372.5377992432196 425.473639652703 368.89972262151434 416.45210391669804C365.2616459998091 407.430568180693 387.3198502074835 385.8491046633556 400.0780899421927 378.70618130258583C412.8363296769019 371.56325794181606 426.5011967264133 373.1445360489981 430.1392733481186 382.16607178500306C433.77734996982383 391.1876075210081 430.2990974610872 414.86662947464 417.54085772637796 422.00955283540975 "></path></g></svg>